<?xml version="1.0" standalone="no"?>
<!DOCTYPE svg PUBLIC "-//W3C//DTD SVG 20010904//EN"
 "http://www.w3.org/TR/2001/REC-SVG-20010904/DTD/svg10.dtd">
<svg version="1.0" xmlns="http://www.w3.org/2000/svg"
 width="1200.000000pt" height="357.000000pt" viewBox="0 0 1200.000000 357.000000"
 preserveAspectRatio="xMidYMid meet">
<metadata>
Created by potrace 1.16, written by Peter Selinger 2001-2019
</metadata>
<g transform="translate(0.000000,357.000000) scale(0.100000,-0.100000)"
fill="#000000" stroke="none">
<path d="M850 2530 c0 -5 12 -13 28 -16 35 -8 72 -42 72 -65 0 -10 -14 -26
-31 -34 -28 -15 -36 -15 -107 4 -42 11 -112 31 -155 45 -92 31 -224 43 -283
27 -48 -13 -108 -68 -129 -118 -32 -77 -10 -174 47 -207 35 -22 45 -15 30 19
-17 37 -15 50 15 85 32 39 39 38 243 -19 80 -22 172 -46 205 -53 33 -6 63 -16
67 -22 4 -6 8 -49 8 -95 l0 -84 -45 -41 c-25 -23 -45 -49 -45 -58 0 -8 20 -32
45 -52 l45 -37 0 -134 0 -135 -27 -17 c-21 -14 -48 -18 -123 -18 -94 0 -99 1
-156 36 -32 21 -60 42 -62 48 -2 6 36 28 85 50 48 22 103 48 122 58 l34 18 0
230 c1 226 0 230 -20 233 -12 2 -43 -8 -70 -21 -90 -45 -203 -91 -209 -84 -10
10 44 76 87 106 21 14 38 34 39 43 0 16 -4 16 -51 -2 -112 -44 -175 -96 -242
-198 -65 -100 -77 -137 -77 -248 0 -109 21 -185 74 -268 139 -218 451 -269
663 -110 62 47 143 216 143 300 0 53 -17 49 -51 -11 -28 -50 -101 -125 -121
-125 -4 0 -8 55 -7 122 l1 123 51 47 52 48 -52 48 -53 49 0 91 0 90 33 7 c96
20 157 93 157 186 0 72 -24 109 -91 143 -53 26 -139 36 -139 16z m-330 -674
c0 -207 -4 -226 -51 -226 -23 0 -61 70 -85 159 -15 52 -16 70 -5 129 15 82 16
84 66 110 78 41 75 47 75 -172z"/>
<path d="M9015 2510 c3 -5 14 -10 24 -10 48 0 91 -72 59 -97 -33 -26 -76 -21
-248 30 -211 61 -257 66 -325 37 -74 -31 -122 -83 -136 -144 -16 -71 0 -126
49 -165 44 -37 57 -39 47 -8 -18 59 -17 72 12 101 35 35 33 36 356 -47 l169
-43 1 -99 2 -98 -47 -36 c-27 -19 -48 -39 -48 -44 0 -5 22 -30 49 -56 l49 -46
1 -138 2 -138 -36 -15 c-52 -21 -145 -28 -201 -15 -54 13 -148 75 -141 94 2 6
56 37 120 69 l117 58 0 62 c2 225 -2 384 -10 392 -5 5 -60 -14 -137 -48 -70
-32 -134 -60 -140 -63 -43 -17 33 97 84 127 43 25 44 45 1 36 -96 -19 -259
-160 -304 -263 -70 -157 -44 -359 61 -488 80 -97 240 -175 360 -175 45 0 171
32 219 56 49 25 105 84 140 149 52 94 81 235 49 235 -4 0 -21 -25 -38 -55 -32
-60 -100 -133 -112 -121 -4 4 -6 62 -5 129 l3 122 39 36 c22 20 40 43 40 50 0
8 -21 32 -45 53 l-46 39 3 96 3 95 30 6 c49 11 92 38 122 77 25 33 28 43 25
107 -3 86 -17 110 -85 142 -52 24 -144 34 -132 14z m-335 -672 c0 -166 -2
-193 -16 -209 -31 -34 -50 -23 -82 44 -52 109 -61 170 -38 261 12 48 16 53 66
78 30 14 58 24 62 22 3 -2 7 -90 8 -196z"/>
<path d="M3490 2460 c-27 -64 -99 -80 -160 -35 -46 34 -61 32 -101 -17 -18
-24 -57 -69 -86 -100 -29 -32 -53 -65 -53 -73 0 -24 27 -17 48 12 l19 26 32
-22 c17 -12 47 -25 66 -28 19 -3 39 -11 44 -17 10 -12 17 -443 8 -452 -3 -3
-28 39 -57 93 -29 54 -71 132 -93 173 -22 41 -53 100 -70 130 -155 288 -181
316 -301 308 -105 -6 -146 -50 -161 -170 -5 -48 -4 -58 8 -58 8 0 20 14 26 30
12 37 35 47 66 30 42 -23 57 -66 53 -160 l-3 -85 -30 -3 c-51 -5 -104 -34
-125 -67 -40 -65 -13 -175 53 -215 39 -24 57 -12 37 26 -13 24 -13 28 9 45 13
10 32 19 42 19 18 0 19 -7 17 -127 l-3 -127 -50 -11 c-136 -31 -193 -108 -176
-242 8 -70 30 -102 93 -134 39 -20 128 -26 128 -9 0 5 -15 16 -32 23 -67 28
-81 83 -33 125 35 30 72 25 134 -19 l45 -31 92 98 c88 93 112 134 80 134 -7 0
-19 -7 -26 -15 -16 -19 -34 -19 -49 -1 -15 18 -113 66 -134 66 -9 0 -18 4 -21
9 -3 5 -8 96 -12 202 -6 206 2 365 17 339 5 -8 32 -53 61 -100 54 -90 115
-200 233 -420 140 -261 169 -305 196 -305 l24 0 -3 448 c-2 419 -1 448 15 453
123 41 173 100 173 202 0 73 -20 100 -40 52z"/>
<path d="M7515 2404 c-60 -41 -111 -78 -113 -83 -2 -5 8 -21 21 -35 14 -14 27
-43 30 -64 3 -20 6 -195 7 -389 l0 -351 -45 -33 c-25 -18 -45 -38 -45 -46 0
-18 20 -16 41 3 17 15 21 14 56 -14 21 -16 49 -42 62 -56 14 -14 31 -26 39
-26 14 0 150 108 186 149 15 16 17 24 8 33 -9 9 -16 7 -30 -5 -25 -23 -37 -21
-61 9 -18 23 -21 41 -21 130 0 94 9 128 23 90 6 -14 218 -352 249 -395 l17
-24 53 45 c119 102 160 145 157 162 -4 16 -6 16 -31 -3 -14 -12 -30 -21 -35
-21 -4 0 -21 21 -37 48 -16 26 -57 85 -91 132 -112 155 -177 251 -172 256 2 2
24 -5 48 -16 111 -50 207 1 249 133 15 48 1 70 -28 43 -11 -9 -34 -21 -52 -26
-28 -8 -41 -6 -78 15 -25 14 -48 25 -52 25 -4 0 -51 -67 -106 -149 -54 -82
-102 -150 -106 -150 -4 -1 -9 153 -10 341 -2 217 -7 342 -13 343 -5 2 -59 -31
-120 -71z"/>
<path d="M1320 2449 c-14 -11 -57 -42 -95 -68 -97 -67 -103 -76 -76 -105 21
-22 21 -28 21 -397 l1 -374 -27 -20 c-67 -50 -70 -53 -57 -66 10 -10 17 -9 33
6 20 18 21 17 79 -38 33 -32 64 -57 70 -57 11 0 190 137 203 155 11 16 -10 31
-24 17 -17 -17 -42 -15 -60 6 -12 14 -14 52 -13 215 1 191 2 199 24 220 l22
22 39 -45 c21 -25 41 -58 44 -74 9 -46 6 -435 -4 -505 -8 -56 -14 -70 -51
-107 -23 -24 -55 -46 -71 -49 -29 -7 -37 -22 -15 -30 26 -11 178 24 223 50 54
32 98 96 115 168 7 31 13 154 14 306 l3 254 28 23 c22 17 26 25 17 34 -9 9
-18 8 -42 -6 -31 -18 -31 -18 -48 6 -25 38 -109 120 -121 120 -6 0 -45 -29
-86 -65 -41 -36 -79 -65 -84 -65 -5 0 -12 104 -15 237 -4 130 -11 240 -15 245
-4 4 -18 -2 -32 -13z"/>
<path d="M5385 2422 c-56 -27 -115 -102 -115 -147 0 -21 27 -19 34 3 3 9 15
23 26 30 17 10 24 10 45 -4 32 -21 37 -51 33 -203 l-3 -124 -44 -13 c-55 -16
-107 -66 -116 -110 -13 -74 36 -164 90 -164 25 0 35 23 15 35 -18 11 -10 35
15 47 19 8 29 8 36 1 7 -7 13 -85 15 -210 l4 -198 -40 -25 c-22 -13 -52 -42
-68 -64 -23 -34 -27 -48 -26 -104 2 -53 7 -71 30 -105 45 -63 73 -79 151 -84
70 -5 165 5 303 33 136 27 168 29 190 9 26 -24 26 -70 0 -88 -21 -15 -17 -27
9 -27 27 0 95 41 120 73 31 38 40 117 18 169 -9 21 -33 48 -60 67 -43 29 -51
31 -139 31 -51 1 -118 -4 -148 -10 -30 -6 -111 -19 -180 -30 -112 -17 -127
-18 -148 -4 -53 35 -51 95 6 125 44 24 201 16 327 -16 135 -34 206 -37 262
-11 81 36 77 13 83 531 l5 460 32 20 c18 11 32 25 33 32 0 24 -21 24 -51 -2
-35 -29 -29 -31 -117 47 -49 44 -82 60 -82 40 0 -9 -125 -111 -146 -119 -8 -3
-14 1 -15 8 0 8 -1 32 -2 53 -1 22 -8 41 -14 43 -10 4 -13 -106 -13 -527 l0
-532 -42 7 c-24 4 -49 12 -55 17 -10 8 -13 115 -14 467 0 337 -4 465 -13 490
-30 83 -145 124 -231 83z m466 -178 l34 -35 3 -123 c3 -120 3 -124 -19 -140
-30 -21 -58 -20 -81 1 -16 14 -18 33 -18 163 0 183 13 204 81 134z m31 -458
c4 -6 8 -95 8 -198 l0 -186 -31 -27 c-21 -17 -41 -25 -58 -23 l-26 3 0 215 0
214 25 13 c26 13 70 7 82 -11z"/>
<path d="M9322 2308 c-37 -35 -67 -66 -67 -69 0 -3 26 -34 57 -68 42 -46 60
-61 71 -54 17 9 123 108 132 123 6 10 -101 130 -117 130 -5 0 -39 -28 -76 -62z"/>
<path d="M4065 2225 c-56 -30 -79 -55 -101 -113 -23 -57 -7 -108 50 -171 74
-79 76 -87 76 -294 l0 -185 -36 -27 c-46 -35 -31 -59 16 -25 l31 22 46 -39
c25 -21 57 -48 72 -60 14 -12 32 -22 39 -23 13 0 66 39 126 93 17 15 35 27 41
27 6 0 33 -18 60 -41 28 -22 63 -51 79 -65 16 -13 32 -22 35 -20 65 35 332
200 337 208 4 5 8 96 9 200 l3 191 58 52 c49 45 57 55 46 67 -12 11 -16 9 -29
-9 -9 -13 -20 -23 -26 -23 -5 0 -39 25 -74 55 -36 30 -68 55 -73 55 -13 0
-158 -133 -159 -146 -1 -5 13 -23 29 -39 l30 -29 0 -227 c0 -173 -3 -228 -12
-232 -7 -2 -39 16 -70 41 -55 43 -58 47 -59 91 0 25 -3 112 -5 193 -4 144 -4
147 21 176 14 16 25 34 25 40 0 16 -123 122 -142 122 -18 0 -148 -116 -148
-132 0 -6 11 -24 25 -40 l25 -30 -2 -216 c-3 -248 -4 -248 -78 -183 l-45 39
-5 227 -5 226 -41 37 c-23 20 -63 54 -88 75 -52 43 -58 69 -25 111 19 24 19
46 0 46 -4 0 -29 -11 -56 -25z"/>
<path d="M11775 2114 c-17 -50 -25 -61 -59 -71 -33 -10 -39 -9 -72 18 -20 16
-42 29 -49 29 -7 0 -42 -20 -77 -44 -63 -41 -87 -55 -170 -98 l-38 -18 0 -110
c0 -118 -1 -115 66 -166 19 -15 34 -31 34 -36 0 -5 -23 -37 -51 -71 -29 -34
-58 -77 -67 -96 -18 -44 -10 -112 18 -151 32 -46 130 -81 130 -47 0 8 -11 20
-24 27 -33 17 -41 41 -20 57 29 21 61 15 98 -18 39 -34 45 -33 122 25 22 17
77 51 121 75 45 24 83 51 85 60 3 9 2 73 0 143 l-4 128 -47 36 c-25 21 -50 41
-55 45 -4 4 5 27 22 51 52 76 75 137 69 186 -6 51 -23 76 -32 46z m-240 -194
c23 -26 80 -44 116 -36 19 4 29 1 29 -6 0 -16 -111 -128 -125 -128 -30 0 -52
46 -58 118 -6 78 3 91 38 52z m67 -247 c24 -25 27 -37 29 -111 1 -45 -1 -85
-4 -89 -4 -3 -24 10 -46 30 -42 38 -92 53 -141 43 -17 -3 -30 -3 -30 1 0 8
152 153 161 153 3 0 17 -12 31 -27z"/>
<path d="M2130 2076 c-19 -13 -89 -51 -155 -86 -66 -34 -122 -64 -124 -66 -2
-2 -3 -98 -3 -213 l2 -209 -25 -16 c-14 -9 -25 -25 -25 -36 0 -25 12 -25 35 0
10 11 22 20 26 20 4 0 46 -34 94 -75 47 -41 91 -75 97 -75 6 0 29 15 52 34 37
30 109 84 226 170 38 28 54 66 28 66 -6 0 -43 -26 -82 -58 -39 -32 -76 -61
-82 -65 -13 -8 -144 117 -144 138 0 18 36 51 80 75 59 31 200 146 200 162 0 9
-20 50 -43 90 -24 40 -56 94 -71 121 -15 26 -32 47 -39 46 -7 0 -28 -10 -47
-23z m-17 -213 c26 -48 46 -96 45 -107 -4 -23 -96 -93 -106 -80 -9 11 -3 274
6 274 4 0 29 -39 55 -87z"/>
<path d="M3725 2051 c-44 -27 -118 -68 -164 -92 l-83 -43 6 -206 7 -206 -31
-22 c-16 -13 -30 -29 -30 -37 0 -20 13 -19 43 5 l26 21 82 -76 c45 -41 89 -75
97 -75 8 0 31 12 51 28 19 15 69 53 110 84 42 31 83 63 91 71 8 8 27 22 43 32
29 19 36 45 12 45 -8 0 -47 -27 -87 -60 -39 -33 -76 -60 -82 -60 -21 0 -149
128 -143 143 3 8 50 45 104 83 124 86 183 135 183 151 0 17 -103 200 -132 236
l-23 27 -80 -49z m15 -197 c30 -52 55 -98 54 -102 0 -10 -98 -82 -107 -79 -9
3 -18 277 -8 277 3 0 31 -43 61 -96z"/>
<path d="M6484 2057 c-40 -23 -108 -60 -153 -82 l-81 -39 0 -220 0 -220 -27
-28 c-20 -21 -24 -31 -15 -40 9 -9 16 -8 30 5 10 9 22 17 27 17 4 0 37 -26 72
-57 108 -97 109 -97 140 -80 39 20 297 168 302 173 2 2 3 95 2 206 l-2 203 25
24 c27 26 34 51 14 51 -6 0 -22 -10 -35 -22 l-23 -22 -53 50 c-75 72 -136 124
-145 124 -4 -1 -39 -20 -78 -43z m40 -159 l66 -63 3 -198 c2 -109 1 -199 -2
-202 -4 -2 -37 24 -73 58 l-67 62 -4 203 c-3 111 -1 202 3 202 4 0 37 -28 74
-62z"/>
<path d="M6982 2057 c-76 -64 -142 -130 -142 -144 0 -19 20 -16 36 5 13 16 16
14 44 -18 l29 -35 1 -187 0 -186 -40 -38 c-22 -21 -40 -42 -40 -46 0 -14 37
-9 50 7 7 8 17 15 22 15 5 0 40 -27 77 -60 37 -33 75 -60 83 -60 16 0 198 157
198 171 0 18 -19 17 -43 -1 -32 -26 -35 -25 -69 7 l-28 27 0 198 0 198 37 -20
c66 -35 129 -20 177 43 37 48 55 147 27 147 -4 0 -16 -7 -27 -15 -26 -19 -56
-19 -94 3 l-31 17 -47 -53 c-26 -29 -51 -52 -57 -52 -5 0 -32 25 -58 55 -27
30 -52 55 -57 55 -4 0 -26 -15 -48 -33z"/>
<path d="M9325 2029 c-33 -27 -75 -62 -94 -77 -43 -35 -36 -62 9 -35 32 18 26
22 87 -56 9 -11 12 -71 13 -201 l0 -185 -32 -27 c-26 -21 -30 -29 -21 -39 10
-10 19 -8 44 10 l32 24 53 -59 c30 -32 54 -62 54 -66 0 -5 7 -8 15 -8 18 0
185 150 185 167 0 19 -21 16 -45 -7 l-22 -21 -32 36 c-31 36 -31 36 -31 153 0
64 -3 147 -6 183 -6 63 -6 67 25 102 37 41 33 72 -4 37 -13 -12 -28 -21 -33
-19 -5 2 -35 34 -67 72 -32 37 -60 67 -64 66 -3 0 -33 -23 -66 -50z"/>
<path d="M9762 2052 c-15 -15 -53 -46 -84 -70 -71 -54 -84 -70 -71 -83 6 -6
16 -2 28 11 10 11 22 20 26 20 5 0 26 -19 48 -42 l40 -43 1 -171 c0 -141 -3
-174 -15 -184 -8 -7 -15 -20 -15 -29 0 -15 129 -161 143 -161 9 0 127 139 127
149 0 5 -11 23 -25 39 l-25 30 2 204 c3 232 6 237 73 161 l40 -46 3 -166 c3
-144 2 -169 -12 -180 -9 -7 -16 -20 -16 -28 0 -16 116 -163 129 -163 15 0 151
132 151 147 0 8 -11 29 -25 45 l-25 30 2 201 c3 179 5 202 20 205 10 2 31 -17
57 -54 l41 -57 0 -152 c0 -123 -3 -155 -15 -165 -28 -24 -16 -55 51 -128 36
-40 71 -72 77 -72 7 1 57 43 112 95 82 77 97 95 82 100 -11 5 -25 1 -38 -11
-19 -17 -20 -17 -49 17 l-29 34 -1 145 c0 80 -3 162 -6 182 -6 33 -3 41 26 68
17 16 30 37 28 46 -3 14 -6 13 -30 -5 -14 -12 -31 -21 -36 -21 -6 0 -36 29
-67 65 -32 36 -61 65 -66 65 -5 0 -44 -29 -87 -65 -42 -36 -84 -65 -92 -65 -8
0 -42 30 -76 67 l-61 67 -52 -40 c-29 -21 -68 -52 -88 -68 l-35 -30 -65 67
c-36 37 -68 67 -70 67 -3 0 -17 -12 -31 -28z"/>
<path d="M10950 2014 c-58 -34 -126 -77 -152 -94 l-48 -30 0 -202 0 -202 -27
-28 c-39 -40 -20 -51 28 -16 14 10 30 0 100 -65 46 -42 90 -77 97 -77 13 0
133 89 268 199 51 41 63 59 47 74 -3 4 -29 -13 -57 -36 -66 -56 -111 -87 -126
-87 -19 0 -130 112 -130 131 0 18 53 65 130 114 47 29 140 103 152 119 14 20
-136 267 -161 265 -9 -1 -63 -30 -121 -65z m55 -170 c28 -53 51 -99 53 -104 3
-8 -97 -85 -102 -79 -6 7 -13 279 -7 279 3 0 29 -43 56 -96z"/>
</g>
</svg>
